<?xml version="1.0" standalone="no"?>
<!DOCTYPE svg PUBLIC "-//W3C//DTD SVG 20010904//EN"
 "http://www.w3.org/TR/2001/REC-SVG-20010904/DTD/svg10.dtd">
<svg version="1.0" xmlns="http://www.w3.org/2000/svg"
 width="400.000000pt" height="400.000000pt" viewBox="0 0 400.000000 400.000000"
 preserveAspectRatio="xMidYMid meet">

<g transform="translate(0.000000,400.000000) scale(0.100000,-0.100000)"
fill="#000000" stroke="none">
<path d="M0 2000 l0 -2000 2000 0 2000 0 0 2000 0 2000 -2000 0 -2000 0 0
-2000z m599 291 c-41 -38 -82 -83 -93 -101 l-18 -32 23 8 c44 16 141 9 184
-13 41 -22 83 -62 103 -98 9 -15 11 19 12 143 l0 164 173 -4 c155 -3 177 -6
225 -27 56 -25 128 -97 138 -138 8 -30 17 -29 35 3 25 47 116 122 177 144 78
30 214 25 284 -9 65 -32 130 -91 159 -145 13 -25 27 -46 31 -46 5 0 8 50 8
110 l0 111 68 -3 67 -3 0 -350 0 -350 -67 -3 -68 -3 0 105 c0 101 -11 143 -24
91 -11 -42 -112 -142 -174 -171 -185 -88 -418 5 -488 194 -10 26 -19 49 -20
51 -2 2 -15 -11 -30 -28 -14 -17 -47 -44 -73 -59 -41 -24 -59 -28 -161 -32
l-115 -5 -3 -73 -3 -73 -67 3 -67 3 -3 68 -3 69 -27 -40 c-72 -108 -207 -145
-330 -92 -105 45 -161 138 -162 265 0 144 50 280 139 378 l53 57 95 0 95 0
-73 -69z m1809 42 c10 -16 70 -117 133 -225 l114 -197 5 222 5 222 444 3 445
2 -62 -56 c-54 -48 -122 -131 -122 -148 0 -3 17 2 37 11 46 19 115 12 171 -16
50 -25 109 -94 122 -140 13 -48 11 -158 -3 -198 -67 -180 -291 -234 -438 -105
-99 87 -117 264 -44 445 l24 57 -75 0 -74 0 -2 -277 -3 -278 -67 -3 -68 -3 -2
278 -3 278 -70 0 -70 0 -3 -277 -2 -278 -70 0 -70 0 -31 48 c-16 26 -76 127
-132 224 -56 98 -105 178 -109 178 -5 0 -8 -101 -8 -225 l0 -226 -67 3 -68 3
-3 340 c-1 187 0 346 3 352 3 9 27 13 74 13 65 0 71 -2 89 -27z"/>
<path d="M1595 2204 c-88 -48 -131 -126 -122 -223 17 -190 246 -267 375 -126
68 72 79 157 35 246 -41 80 -94 113 -186 116 -52 2 -80 -1 -102 -13z"/>
<path d="M950 2075 l0 -135 93 0 c74 0 98 4 124 20 84 51 84 179 0 230 -26 16
-50 20 -124 20 l-93 0 0 -135z"/>
<path d="M510 2033 c-117 -60 -76 -253 55 -253 94 0 151 99 111 195 -27 63
-103 90 -166 58z"/>
<path d="M3395 2034 c-119 -61 -82 -255 48 -254 23 1 52 6 65 14 88 48 80 203
-13 242 -44 18 -63 18 -100 -2z"/>
</g>
</svg>
